<svg width="20" height="20" viewBox="0 0 20 20" fill="none" xmlns="http://www.w3.org/2000/svg">
<path d="M4.32507 5.31686C4.16673 5.31686 4.00007 5.2502 3.8834 5.13353C3.64173 4.89186 3.64173 4.49186 3.8834 4.2502L6.9084 1.2252C7.15007 0.983529 7.55007 0.983529 7.79173 1.2252C8.0334 1.46686 8.0334 1.86686 7.79173 2.10853L4.76673 5.13353C4.64173 5.2502 4.4834 5.31686 4.32507 5.31686Z" fill="#6E7378"/>
<path d="M15.6748 5.31686C15.5164 5.31686 15.3581 5.25853 15.2331 5.13353L12.2081 2.10853C11.9664 1.86686 11.9664 1.46686 12.2081 1.2252C12.4498 0.983529 12.8498 0.983529 13.0914 1.2252L16.1164 4.2502C16.3581 4.49186 16.3581 4.89186 16.1164 5.13353C15.9998 5.2502 15.8331 5.31686 15.6748 5.31686Z" fill="#6E7378"/>
<path d="M16.8415 8.83333C16.7832 8.83333 16.7248 8.83333 16.6665 8.83333H16.4748H3.33317C2.74984 8.84167 2.08317 8.84167 1.59984 8.35833C1.2165 7.98333 1.0415 7.4 1.0415 6.54167C1.0415 4.25 2.7165 4.25 3.5165 4.25H16.4832C17.2832 4.25 18.9582 4.25 18.9582 6.54167C18.9582 7.40833 18.7832 7.98333 18.3998 8.35833C17.9665 8.79167 17.3832 8.83333 16.8415 8.83333ZM3.5165 7.58333H16.6748C17.0498 7.59167 17.3998 7.59167 17.5165 7.475C17.5748 7.41667 17.6998 7.21667 17.6998 6.54167C17.6998 5.6 17.4665 5.5 16.4748 5.5H3.5165C2.52484 5.5 2.2915 5.6 2.2915 6.54167C2.2915 7.21667 2.42484 7.41667 2.47484 7.475C2.5915 7.58333 2.94984 7.58333 3.3165 7.58333H3.5165Z" fill="#6E7378"/>
<path d="M12.4083 18.9581H7.38329C4.39996 18.9581 3.73329 17.1831 3.47496 15.6415L2.29996 8.43313C2.24162 8.09146 2.47496 7.7748 2.81662 7.71646C3.14996 7.65813 3.47496 7.89146 3.53329 8.23313L4.70829 15.4331C4.94996 16.9081 5.44996 17.7081 7.38329 17.7081H12.4083C14.55 17.7081 14.7916 16.9581 15.0666 15.5081L16.4666 8.21646C16.5333 7.87479 16.8583 7.6498 17.2 7.7248C17.5416 7.79146 17.7583 8.11646 17.6916 8.45813L16.2916 15.7498C15.9666 17.4415 15.425 18.9581 12.4083 18.9581Z" fill="#6E7378"/>
</svg>
