<svg width="20" height="12" viewBox="0 0 20 12" fill="none" xmlns="http://www.w3.org/2000/svg">
<path fill-rule="evenodd" clip-rule="evenodd" d="M3.76968 0.742188C3.60171 0.816406 3.47671 0.96875 3.43374 1.14453C3.41421 1.22656 3.39858 1.51562 3.39858 1.78906V2.28906H2.67593C1.95718 2.28906 1.94936 2.28906 1.85561 2.38672C1.7228 2.51562 1.7228 2.72656 1.85561 2.85547L1.94936 2.95312H3.98061H6.01186L6.11343 2.86328C6.26186 2.73828 6.26186 2.50391 6.11343 2.37891C6.01186 2.28906 5.99624 2.28906 5.0353 2.28906H4.06265V1.82031V1.35156H9.21889H14.3751V5.41406V9.47656H12.1134H9.85171L9.80483 9.32812C9.64858 8.84375 9.32046 8.46484 8.86733 8.25C8.62905 8.13672 8.58999 8.12891 8.14468 8.12891C7.69936 8.12891 7.66421 8.13672 7.41811 8.25C7.27358 8.32031 7.08218 8.44141 6.99233 8.52344C6.77749 8.71484 6.55093 9.06641 6.48452 9.29688L6.43374 9.47656H5.25015H4.06265V8.61719V7.75781H4.55483C5.04311 7.75781 5.16421 7.73047 5.26186 7.60547C5.3439 7.5 5.32046 7.29688 5.21499 7.19141L5.12124 7.09375H2.99624H0.871239L0.789208 7.18359C0.660302 7.32031 0.67202 7.57031 0.804833 7.67578C0.906395 7.75391 0.95327 7.75781 2.15249 7.75781H3.39858V8.78906C3.39858 9.84766 3.42202 10.0312 3.55483 10.1016C3.5978 10.125 4.19155 10.1406 5.0353 10.1406H6.43765L6.46499 10.2656C6.50405 10.4531 6.66421 10.7617 6.82436 10.9531C7.30093 11.5352 8.2228 11.7188 8.91421 11.3711C9.32827 11.1641 9.65639 10.7812 9.79311 10.3516L9.85952 10.1406H12.6564H15.4533L15.5197 10.3516C15.7462 11.0586 16.4064 11.543 17.1525 11.5469C17.9533 11.5469 18.6017 11.0703 18.8283 10.3047L18.8791 10.1406H19.2345C19.6291 10.1406 19.7775 10.082 19.9103 9.87891C19.9728 9.78125 19.9806 9.66797 19.9767 8.63672C19.9767 7.56641 19.9728 7.48828 19.8908 7.25781C19.797 6.99219 18.1486 4 17.9689 3.77344C17.9103 3.69922 17.797 3.59766 17.7111 3.55078C17.5626 3.46484 17.5314 3.46094 16.3009 3.46094H15.0392V2.27344C15.0392 1.10938 15.0392 1.08594 14.9494 0.957031C14.9025 0.882812 14.8009 0.792969 14.7267 0.757812C14.5978 0.691406 14.258 0.6875 9.23843 0.6875C4.86733 0.691406 3.86733 0.699219 3.76968 0.742188ZM18.2736 5.64844C18.7345 6.47656 19.1603 7.25781 19.215 7.38672C19.3087 7.61328 19.3126 7.66016 19.3283 8.54688L19.3439 9.47656H19.1095H18.8751L18.8087 9.26953C18.6681 8.82812 18.34 8.46094 17.8986 8.25391C17.6486 8.13672 17.6134 8.12891 17.1681 8.12891C16.7228 8.12891 16.6837 8.13672 16.4455 8.25C16.0939 8.41797 15.8205 8.67578 15.6564 8.99609C15.5783 9.14062 15.508 9.30859 15.4923 9.36719C15.4689 9.46875 15.4533 9.47656 15.2541 9.47656H15.0392V6.80078V4.125L16.2345 4.13281L17.4298 4.14453L18.2736 5.64844ZM8.57436 8.86719C8.79311 8.96875 9.03921 9.21875 9.13296 9.43359C9.16421 9.51172 9.19155 9.68359 9.19155 9.82812C9.19546 10.1289 9.07046 10.4102 8.85171 10.6016C8.60171 10.8203 8.48452 10.8633 8.14468 10.8633C7.77358 10.8633 7.60171 10.7891 7.35561 10.5195C6.86733 9.98828 7.05874 9.13281 7.73452 8.83984C7.94936 8.74609 8.34389 8.75781 8.57436 8.86719ZM17.633 8.87109C17.9494 9.02344 18.1759 9.34766 18.2267 9.72266C18.2853 10.1367 17.9884 10.625 17.5705 10.8047C17.1759 10.9727 16.6916 10.8633 16.3947 10.5352C15.8791 9.96484 16.09 9.10938 16.8126 8.82422C16.9884 8.75391 17.4494 8.78125 17.633 8.87109ZM3.54699 3.63281C3.41809 3.73047 3.39856 3.88672 3.39856 4.79297V5.6875H2.91809C2.47668 5.6875 2.4259 5.69531 2.35949 5.76953C2.25012 5.89063 2.26184 6.14453 2.37902 6.23828C2.46496 6.30859 2.58215 6.3125 5.39074 6.3125H8.31652L8.39465 6.21094C8.50012 6.07813 8.50012 5.92188 8.39465 5.78906L8.31652 5.6875H6.18762H4.06262V4.71875C4.06262 3.75391 4.06262 3.74609 3.97277 3.66406C3.87121 3.56641 3.65246 3.55078 3.54699 3.63281ZM0.00773055 4.31631C0.0194493 4.14053 0.0350743 4.10147 0.117106 4.0585C0.187418 4.02334 0.523356 4.00772 1.37882 4.00772H2.54679L2.66398 4.12491C2.76554 4.23037 2.78117 4.26553 2.76164 4.39053C2.74996 4.46059 2.74144 4.51319 2.71403 4.5527C2.63139 4.67178 2.37714 4.67178 1.34757 4.67178C0.371974 4.67178 0.0954983 4.67922 0.0242564 4.56196C-0.00776177 4.50926 0.00167444 4.43138 0.00773055 4.31631Z" fill="#8C9196"/>
</svg>
