<svg width="16" height="14" viewBox="0 0 16 14" fill="none" xmlns="http://www.w3.org/2000/svg">
<path fill-rule="evenodd" clip-rule="evenodd" d="M7.1001 0.6667C7.37466 0.512118 7.68443 0.430908 7.99953 0.430908C8.31462 0.430908 8.62439 0.512118 8.89896 0.6667C9.17352 0.821283 9.40361 1.04402 9.56703 1.31342L9.56847 1.3158L15.2192 10.7493C15.3793 11.0266 15.464 11.3409 15.4649 11.661C15.4658 11.9811 15.3828 12.2959 15.2243 12.574C15.0658 12.8521 14.8372 13.0839 14.5613 13.2462C14.2854 13.4086 13.9718 13.4959 13.6517 13.4994L13.6462 13.4994L2.34736 13.4994C2.02726 13.4959 1.71366 13.4086 1.43776 13.2462C1.16186 13.0839 0.933279 12.8521 0.774755 12.574C0.61623 12.2959 0.533291 11.9811 0.534187 11.661C0.535083 11.3409 0.619785 11.0266 0.779864 10.7494L0.78387 10.7424L6.43059 1.3158L6.85953 1.57274L6.43203 1.31342C6.59544 1.04402 6.82553 0.821283 7.1001 0.6667ZM7.28766 1.83101L7.28703 1.83205L1.64408 11.2525C1.57247 11.3778 1.53459 11.5195 1.53418 11.6638C1.53378 11.8093 1.57148 11.9524 1.64353 12.0788C1.71559 12.2052 1.81949 12.3106 1.9449 12.3844C2.06961 12.4578 2.21126 12.4974 2.35591 12.4994H13.6431C13.7878 12.4974 13.9294 12.4578 14.0542 12.3844C14.1796 12.3106 14.2835 12.2052 14.3555 12.0788C14.4276 11.9524 14.4653 11.8093 14.4649 11.6638C14.4645 11.5195 14.4266 11.3778 14.355 11.2525L8.71203 1.83205L8.71139 1.83101C8.63715 1.70902 8.5328 1.60815 8.40836 1.53809C8.28356 1.46782 8.14275 1.43091 7.99953 1.43091C7.8563 1.43091 7.7155 1.46782 7.59069 1.53809C7.46625 1.60815 7.3619 1.70902 7.28766 1.83101ZM7.99952 4.49992C8.27566 4.49992 8.49952 4.72378 8.49952 4.99992V7.66659C8.49952 7.94273 8.27566 8.16659 7.99952 8.16659C7.72338 8.16659 7.49952 7.94273 7.49952 7.66659V4.99992C7.49952 4.72378 7.72338 4.49992 7.99952 4.49992ZM7.99952 9.83325C7.72338 9.83325 7.49952 10.0571 7.49952 10.3333C7.49952 10.6094 7.72338 10.8333 7.99952 10.8333H8.00619C8.28233 10.8333 8.50619 10.6094 8.50619 10.3333C8.50619 10.0571 8.28233 9.83325 8.00619 9.83325H7.99952Z" fill="#FE645E"/>
</svg>
